<svg xmlns="http://www.w3.org/2000/svg" width="70" height="70" fill="none" viewBox="0 0 70 70">
  <path fill="#fff" d="M67.5 65H60V5h2.5a2.5 2.5 0 0 0 0-5h-55a2.5 2.5 0 1 0 0 5H10v60H2.5a2.5 2.5 0 0 0 0 5h65a2.5 2.5 0 0 0 0-5ZM15 5h40v60H45V52.5a2.5 2.5 0 0 0-2.5-2.5h-15a2.5 2.5 0 0 0-2.5 2.5V65H15V5Zm25 60H30V55h10v10ZM22.5 15a2.5 2.5 0 0 1 2.5-2.5h5a2.5 2.5 0 0 1 0 5h-5a2.5 2.5 0 0 1-2.5-2.5Zm15 0a2.5 2.5 0 0 1 2.5-2.5h5a2.5 2.5 0 0 1 0 5h-5a2.5 2.5 0 0 1-2.5-2.5Zm-15 12.5A2.5 2.5 0 0 1 25 25h5a2.5 2.5 0 0 1 0 5h-5a2.5 2.5 0 0 1-2.5-2.5Zm15 0A2.5 2.5 0 0 1 40 25h5a2.5 2.5 0 0 1 0 5h-5a2.5 2.5 0 0 1-2.5-2.5ZM22.5 40a2.5 2.5 0 0 1 2.5-2.5h5a2.5 2.5 0 0 1 0 5h-5a2.5 2.5 0 0 1-2.5-2.5Zm15 0a2.5 2.5 0 0 1 2.5-2.5h5a2.5 2.5 0 0 1 0 5h-5a2.5 2.5 0 0 1-2.5-2.5Z"/>
</svg>
