<svg width="16" height="16" viewBox="0 0 16 16" fill="none" xmlns="http://www.w3.org/2000/svg">
<g clip-path="url(#clip0_2340_129477)">
<path d="M10.0168 5.14307C10.0168 6.28232 9.09203 7.20557 7.95178 7.20557C6.81278 7.20557 5.88953 6.28207 5.88953 5.14307C5.88953 4.00407 6.81278 3.08057 7.95178 3.08057C9.09203 3.08057 10.0168 4.00407 10.0168 5.14307Z" fill="black"/>
<path d="M7.95501 0.130859C7.0005 0.130859 5.66726 0.511359 4.70151 1.47711L5.84851 3.56686C6.09911 3.24785 6.41899 2.99002 6.78393 2.81288C7.14888 2.63573 7.54934 2.54391 7.95501 2.54436C8.81976 2.54436 9.58926 2.95286 10.0795 3.58811L11.2045 1.42911C10.3688 0.515859 8.87001 0.130859 7.95501 0.130859ZM8.80501 1.66536H8.27101V2.19886H7.62951V1.66536H7.09551V1.02411H7.62951V0.488359H8.27101V1.02411H8.80501V1.66536ZM5.24151 10.9126H5.76976L5.01526 13.4986H10.9105L10.1595 10.9126H10.6883L11.444 13.4986H13.1788L11.9948 9.58061C11.8098 8.93386 10.9988 7.79511 9.59926 7.76061L6.38176 7.75786C4.95051 7.76486 4.12251 8.92586 3.93526 9.58036L2.72826 13.4984H4.48751L5.24151 10.9126ZM0.236755 14.3231H15.6693V15.7914H0.236755V14.3231Z" fill="black"/>
</g>
<defs>
<clipPath id="clip0_2340_129477">
<rect width="16" height="16" fill="white"/>
</clipPath>
</defs>
</svg>
