<svg width="16" height="16" viewBox="0 0 16 16" fill="none" xmlns="http://www.w3.org/2000/svg">
<path d="M5.33335 2.66667H4.00002C3.6464 2.66667 3.30726 2.80714 3.05721 3.05719C2.80716 3.30724 2.66669 3.64638 2.66669 4V12C2.66669 12.3536 2.80716 12.6928 3.05721 12.9428C3.30726 13.1929 3.6464 13.3333 4.00002 13.3333H12C12.3536 13.3333 12.6928 13.1929 12.9428 12.9428C13.1929 12.6928 13.3334 12.3536 13.3334 12V4C13.3334 3.64638 13.1929 3.30724 12.9428 3.05719C12.6928 2.80714 12.3536 2.66667 12 2.66667H10.6667M8.00002 2V7.33333M8.00002 7.33333L10 5.33333M8.00002 7.33333L6.00002 5.33333M2.66669 8.66667H4.39069C4.56748 8.6667 4.73703 8.73697 4.86202 8.862L6.47135 10.4713C6.59635 10.5964 6.76589 10.6666 6.94269 10.6667H9.05735C9.23415 10.6666 9.40369 10.5964 9.52869 10.4713L11.138 8.862C11.263 8.73697 11.4326 8.6667 11.6094 8.66667H13.3334" stroke="black" stroke-width="2" stroke-linecap="round" stroke-linejoin="round"/>
</svg>
