<svg xmlns="http://www.w3.org/2000/svg" width="35" height="36" fill="none" viewBox="0 0 35 36">
  <path stroke="#2E89D7" stroke-linecap="round" stroke-linejoin="round" stroke-width="2" d="M11.665 6.333H8.75A2.917 2.917 0 0 0 5.832 9.25v17.5a2.917 2.917 0 0 0 2.917 2.917h17.5a2.917 2.917 0 0 0 2.916-2.917V9.25a2.917 2.917 0 0 0-2.916-2.917h-2.917m-5.833-1.458v11.667m0 0 4.375-4.375m-4.375 4.375-4.375-4.375m-7.292 7.291h3.771c.387 0 .758.154 1.031.428l3.52 3.52c.274.274.645.427 1.032.427h4.626c.386 0 .757-.153 1.03-.427l3.521-3.52a1.458 1.458 0 0 1 1.031-.428h3.771"/>
</svg>
