<svg width="16" height="16" viewBox="0 0 16 16" fill="none" xmlns="http://www.w3.org/2000/svg">
<path d="M8 6.66683C9.47334 6.66683 10.6667 5.4735 10.6667 4.00016C10.6667 2.52683 9.47334 1.3335 8 1.3335C6.52667 1.3335 5.33334 2.52683 5.33334 4.00016C5.33334 5.4735 6.52667 6.66683 8 6.66683ZM8 2.66683C8.73334 2.66683 9.33334 3.26683 9.33334 4.00016C9.33334 4.7335 8.73334 5.3335 8 5.3335C7.26667 5.3335 6.66667 4.7335 6.66667 4.00016C6.66667 3.26683 7.26667 2.66683 8 2.66683ZM12.26 8.3735C11.14 7.80016 9.68667 7.3335 8 7.3335C6.31334 7.3335 4.86 7.80016 3.74 8.3735C3.41471 8.54104 3.1422 8.79545 2.95274 9.10848C2.76327 9.42152 2.66425 9.78093 2.66667 10.1468V14.6668H4V10.1468C4 9.8935 4.13334 9.66683 4.33334 9.56016C5.14 9.1535 6.42 8.66683 8 8.66683C8.50667 8.66683 8.98 8.7135 9.42 8.80016L8.38667 11.0002H6.5C5.48667 11.0002 4.66667 11.8202 4.66667 12.8335C4.66667 13.8468 5.48667 14.6668 6.5 14.6668H12C12.7333 14.6668 13.3333 14.0668 13.3333 13.3335V10.1468C13.3333 9.40016 12.9267 8.7135 12.26 8.3735ZM7.29334 13.3335H6.5C6.22667 13.3335 6 13.1068 6 12.8335C6 12.5602 6.22667 12.3335 6.5 12.3335H7.76L7.29334 13.3335ZM12 13.3335H8.76667L10.7267 9.1535C11.0867 9.28683 11.4 9.42683 11.6667 9.56016C11.8667 9.66683 12 9.8935 12 10.1468V13.3335Z" fill="black"/>
</svg>
