<svg xmlns="http://www.w3.org/2000/svg" width="80" height="64" fill="none" viewBox="0 0 80 64">
  <path fill="#fff" d="M12 16a16 16 0 1 1 32 0 16 16 0 0 1-32 0ZM0 60.288C0 47.974 9.975 38 22.288 38h11.424C46.026 38 56 47.975 56 60.288A3.713 3.713 0 0 1 52.288 64H3.712A3.713 3.713 0 0 1 0 60.288ZM76.162 64H58.937a8.005 8.005 0 0 0 1.076-4v-1c0-7.587-3.388-14.4-8.725-18.975.3-.012.587-.025.887-.025h7.675C70.975 40 80 49.025 80 60.163A3.838 3.838 0 0 1 76.162 64ZM54 32a13.972 13.972 0 0 1-9.913-4.113A19.9 19.9 0 0 0 48 16c0-3.35-.825-6.512-2.288-9.287A13.995 13.995 0 0 1 54 4c7.737 0 14 6.262 14 14s-6.263 14-14 14Z"/>
</svg>
